<svg xmlns="http://www.w3.org/2000/svg" xmlns:xlink="http://www.w3.org/1999/xlink" viewBox="0 0 404.46 100.21"><defs><style>.cls-1,.cls-2,.cls-3,.cls-4,.cls-5{fill:#fff;}.cls-2{clip-path:url(#clip-path);}.cls-3{clip-path:url(#clip-path-2);}.cls-4{clip-path:url(#clip-path-3);}.cls-5{clip-path:url(#clip-path-4);}.cls-6{fill:#231f20;}</style><clipPath id="clip-path"><path class="cls-1" d="M154.91,403.05v16.87c-4.37-2.62-10-5.62-16.25-5.62-4,0-7.62,1.5-7.62,4.87,0,2.38,1.37,3.13,6.75,4.5l3.87,1c11.25,2.88,16.63,8.75,16.63,17.88,0,12.5-12.5,21.25-26.13,21.25a42.45,42.45,0,0,1-23.75-7.13V439.92c6,3.75,14.38,6.5,20.38,6.5,4.75,0,7-1,7-4,0-2.37-2.75-3.25-7.75-4.87l-6.38-2c-9.37-2.88-13.5-9-13.5-17.88,0-13.12,11.5-21.37,26.63-21.37C143,396.3,150.54,398.92,154.91,403.05Z"/></clipPath><clipPath id="clip-path-2"><path class="cls-2" d="M231.16,422.55v39.37h-21.5l-.12-36c0-6.37-4.13-8.62-8.5-8.62-4.63,0-7.75,2.75-10,6.12v38.5h-21.5v-90H191v34.5c4-5.5,9.5-10.12,18-10.12C222,396.3,231.16,405.3,231.16,422.55Z"/></clipPath><clipPath id="clip-path-3"><path class="cls-3" d="M308.41,435.67h-43.5c1.88,6.38,7.88,9.38,15.13,9.38,9.62,0,16.25-2.25,19.75-4.25v18.37c-4.38,2.75-11.5,4.63-21,4.63-18.13,0-35.13-12.5-35.13-32.75,0-19,14.63-34.75,33.88-34.75,18,0,30.87,12.62,30.87,32.25Z"/></clipPath><clipPath id="clip-path-4"><path class="cls-4" d="M288,423.67c0-6-5.5-9.62-11.13-9.62s-10,3.12-11.75,9.62Z"/></clipPath><clipPath id="clip-path-5"><path class="cls-5" d="M365.41,398.8v23.87a18.48,18.48,0,0,0-10.37-3c-5.88,0-10.38,3.88-13.25,9.5v32.75h-21.5V398.17h21.5v11.38c4-6.75,8.37-12.63,16.37-12.63A15.16,15.16,0,0,1,365.41,398.8Z"/></clipPath></defs><title>DART498-LOGO-2</title><g id="Layer_3" data-name="Layer 3"><path class="cls-6" d="M157.75,410.88v16.88c-4.38-2.63-10-5.63-16.25-5.63-4,0-7.63,1.5-7.63,4.88,0,2.37,1.38,3.12,6.75,4.5l3.88,1c11.25,2.87,16.62,8.75,16.62,17.87,0,12.5-12.5,21.25-26.12,21.25a42.45,42.45,0,0,1-23.75-7.12V447.76c6,3.75,14.37,6.5,20.37,6.5,4.75,0,7-1,7-4,0-2.38-2.75-3.25-7.75-4.88l-6.37-2c-9.38-2.87-13.5-9-13.5-17.87,0-13.13,11.5-21.38,26.62-21.38C145.87,404.13,153.37,406.76,157.75,410.88Z" transform="translate(-108.16 -371.92)"/><path class="cls-6" d="M234,430.38v39.38H212.5l-.13-36c0-6.38-4.12-8.63-8.5-8.63-4.62,0-7.75,2.75-10,6.13v38.5h-21.5v-90h21.5v34.5c4-5.5,9.5-10.13,18-10.13C224.87,404.13,234,413.13,234,430.38Z" transform="translate(-108.16 -371.92)"/><path class="cls-6" d="M311.25,443.51h-43.5c1.87,6.37,7.87,9.37,15.12,9.37,9.63,0,16.25-2.25,19.75-4.25V467c-4.37,2.75-11.5,4.62-21,4.62-18.12,0-35.12-12.5-35.12-32.75,0-19,14.62-34.75,33.87-34.75,18,0,30.88,12.63,30.88,32.25Zm-20.38-12c0-6-5.5-9.63-11.12-9.63s-10,3.13-11.75,9.63Z" transform="translate(-108.16 -371.92)"/><path class="cls-6" d="M368.25,406.63v23.88a18.44,18.44,0,0,0-10.38-3c-5.87,0-10.37,3.87-13.25,9.5v32.75h-21.5V406h21.5v11.37c4-6.75,8.38-12.62,16.38-12.62A15.29,15.29,0,0,1,368.25,406.63Z" transform="translate(-108.16 -371.92)"/><path class="cls-6" d="M477.5,430.38v39.38H456l-.13-36c0-6.38-3.75-8.63-8.12-8.63-3.75,0-6.25,2.5-8.5,5.75v38.88h-21.5l-.13-36c0-6.38-3.75-8.63-8.12-8.63-3.88,0-6.25,2.75-8.5,6.13v38.5H379.5V406H401v8.25c4-5.5,7.62-10.13,16.12-10.13s15.5,4,19.25,11.63c4-6.63,10.75-11.63,19-11.63C468.37,404.13,477.5,413.13,477.5,430.38Z" transform="translate(-108.16 -371.92)"/><path class="cls-6" d="M512.62,460.88a11.25,11.25,0,0,1-22.5,0,11.25,11.25,0,0,1,22.5,0Z" transform="translate(-108.16 -371.92)"/></g><g id="Layer_1" data-name="Layer 1"><path class="cls-1" d="M154.91,403.05v16.87c-4.37-2.62-10-5.62-16.25-5.62-4,0-7.62,1.5-7.62,4.87,0,2.38,1.37,3.13,6.75,4.5l3.87,1c11.25,2.88,16.63,8.75,16.63,17.88,0,12.5-12.5,21.25-26.13,21.25a42.45,42.45,0,0,1-23.75-7.13V439.92c6,3.75,14.38,6.5,20.38,6.5,4.75,0,7-1,7-4,0-2.37-2.75-3.25-7.75-4.87l-6.38-2c-9.37-2.88-13.5-9-13.5-17.88,0-13.12,11.5-21.37,26.63-21.37C143,396.3,150.54,398.92,154.91,403.05Z" transform="translate(-108.16 -371.92)"/><path class="cls-1" d="M231.16,422.55v39.37h-21.5l-.12-36c0-6.37-4.13-8.62-8.5-8.62-4.63,0-7.75,2.75-10,6.12v38.5h-21.5v-90H191v34.5c4-5.5,9.5-10.12,18-10.12C222,396.3,231.16,405.3,231.16,422.55Z" transform="translate(-108.16 -371.92)"/><path class="cls-1" d="M308.41,435.67h-43.5c1.88,6.38,7.88,9.38,15.13,9.38,9.62,0,16.25-2.25,19.75-4.25v18.37c-4.38,2.75-11.5,4.63-21,4.63-18.13,0-35.13-12.5-35.13-32.75,0-19,14.63-34.75,33.88-34.75,18,0,30.87,12.62,30.87,32.25Z" transform="translate(-108.16 -371.92)"/><path class="cls-1" d="M288,423.67c0-6-5.5-9.62-11.13-9.62s-10,3.12-11.75,9.62Z" transform="translate(-108.16 -371.92)"/><path class="cls-1" d="M365.41,398.8v23.87a18.48,18.48,0,0,0-10.37-3c-5.88,0-10.38,3.88-13.25,9.5v32.75h-21.5V398.17h21.5v11.38c4-6.75,8.37-12.63,16.37-12.63A15.16,15.16,0,0,1,365.41,398.8Z" transform="translate(-108.16 -371.92)"/><path class="cls-1" d="M474.66,422.55v39.37h-21.5l-.12-36c0-6.37-3.75-8.62-8.13-8.62-3.75,0-6.25,2.5-8.5,5.75v38.87h-21.5l-.12-36c0-6.37-3.75-8.62-8.13-8.62-3.87,0-6.25,2.75-8.5,6.12v38.5h-21.5V398.17h21.5v8.25c4-5.5,7.63-10.12,16.13-10.12s15.5,4,19.25,11.62c4-6.62,10.75-11.62,19-11.62C465.54,396.3,474.66,405.3,474.66,422.55Z" transform="translate(-108.16 -371.92)"/><circle class="cls-1" cx="390.38" cy="81.12" r="11.25"/></g></svg>