<svg id="Layer_4_copy_2" data-name="Layer 4 copy 2" xmlns="http://www.w3.org/2000/svg" xmlns:xlink="http://www.w3.org/1999/xlink" viewBox="0 0 82.29 80.93"><defs><style>.cls-1{mask:url(#mask);}.cls-2{fill:#231f20;}.cls-3{mask:url(#mask-2);}.cls-4{opacity:0;}.cls-5{fill:#fff;}.cls-6{filter:url(#luminosity-noclip);}</style><filter id="luminosity-noclip" x="177.96" y="-8613" width="81.32" height="32766" filterUnits="userSpaceOnUse" color-interpolation-filters="sRGB"><feFlood flood-color="#fff" result="bg"/><feBlend in="SourceGraphic" in2="bg"/></filter><mask id="mask" x="0.97" y="-9004.2" width="81.32" height="32766" maskUnits="userSpaceOnUse"><g class="cls-6"/></mask><mask id="mask-2" x="-41.22" y="-22.63" width="178.7" height="138.36" maskUnits="userSpaceOnUse"/></defs><title>DART498-LOGO-v5</title><g class="cls-1"><path class="cls-2" d="M222.91,408.3v17.58c-4.21-2.73-9.62-5.86-15.62-5.86-3.85,0-7.33,1.57-7.33,5.08,0,2.48,1.32,3.26,6.48,4.69l3.73,1c10.82,3,16,9.12,16,18.63,0,13-12,22.15-25.11,22.15a38.63,38.63,0,0,1-22.84-7.43V446.73c5.77,3.91,13.82,6.77,19.59,6.77,4.57,0,6.73-1,6.73-4.17,0-2.47-2.64-3.38-7.45-5.08l-6.13-2.08c-9-3-13-9.38-13-18.63,0-13.68,11.06-22.28,25.6-22.28C211.49,401.26,218.7,404,222.91,408.3Z" transform="translate(-177 -391.2)"/><path class="cls-2" d="M259.28,460.41c0,6.38-5.12,11.72-11.25,11.72a11.74,11.74,0,1,1,11.25-11.72Z" transform="translate(-177 -391.2)"/></g><g class="cls-3"><g class="cls-4"><path class="cls-5" d="M223.75,398v16.87c-4.38-2.62-10-5.62-16.25-5.62-4,0-7.63,1.5-7.63,4.87,0,2.38,1.38,3.13,6.75,4.5l3.88,1c11.25,2.88,16.62,8.75,16.62,17.88,0,12.5-12.5,21.25-26.12,21.25a42.45,42.45,0,0,1-23.75-7.13V434.82c6,3.75,14.37,6.5,20.37,6.5,4.75,0,7-1,7-4,0-2.37-2.75-3.25-7.75-4.87l-6.37-2c-9.38-2.88-13.5-9-13.5-17.88,0-13.12,11.5-21.37,26.62-21.37C211.87,391.2,219.37,393.82,223.75,398Z" transform="translate(-177 -391.2)"/><path class="cls-5" d="M259.28,448a11.25,11.25,0,1,1-22.5,0,11.25,11.25,0,1,1,22.5,0Z" transform="translate(-177 -391.2)"/></g></g></svg>